<?xml version="1.0" standalone="no"?>
<!DOCTYPE svg PUBLIC "-//W3C//DTD SVG 20010904//EN"
 "http://www.w3.org/TR/2001/REC-SVG-20010904/DTD/svg10.dtd">
<svg version="1.0" xmlns="http://www.w3.org/2000/svg"
 width="580.000000pt" height="387.000000pt" viewBox="0 0 580.000000 387.000000"
 preserveAspectRatio="xMidYMid meet">

<g transform="translate(0.000000,387.000000) scale(0.100000,-0.100000)"
fill="#ffffff" stroke="none">
<path d="M3446 3063 c-40 -124 -142 -334 -219 -450 -156 -234 -366 -415 -573
-493 -36 -14 -30 -7 30 34 112 77 216 209 291 370 60 127 64 152 13 76 -59
-90 -166 -200 -268 -276 -46 -35 -170 -115 -275 -176 -104 -62 -224 -138 -265
-169 -139 -103 -182 -193 -149 -311 12 -44 29 -50 29 -10 1 59 50 131 123 177
33 21 34 15 2 -33 -60 -91 -71 -269 -25 -402 24 -69 79 -184 85 -178 2 2 -1
24 -6 49 -10 48 -8 215 2 189 4 -8 12 -44 19 -80 24 -133 124 -299 238 -398
143 -124 365 -233 542 -266 29 -6 22 0 -36 31 -152 83 -234 163 -274 270 -39
105 -16 227 57 305 73 77 225 92 433 43 148 -35 257 -39 297 -9 52 38 64 77
57 184 l-7 95 37 43 c42 51 43 60 15 96 -12 15 -20 28 -18 30 2 1 16 10 31 19
40 25 42 49 13 106 -15 27 -25 60 -23 73 3 21 14 30 100 83 18 11 39 32 47 47
14 24 14 30 -1 60 -9 18 -51 71 -94 118 -137 151 -167 222 -142 336 13 58 14
59 56 66 66 11 73 22 18 28 l-50 5 3 65 c1 36 -5 101 -13 145 -14 83 -52 195
-65 195 -4 0 -20 -39 -35 -87z"/>
</g>
</svg>
